<mxfile host="app.diagrams.net" modified="2021-07-03T15:25:30.991Z" agent="5.0 (Windows NT 10.0; Win64; x64) AppleWebKit/537.36 (KHTML, like Gecko) Chrome/85.0.4183.102 Safari/537.36" etag="7tgIUxGc55qaFSJ9nXX-" version="14.8.4" type="github" pages="3">
  <diagram id="crDIRh64QiVYAVsfkoPM" name="Page-1">
    <mxGraphModel dx="1422" dy="713" grid="1" gridSize="10" guides="1" tooltips="1" connect="1" arrows="1" fold="1" page="1" pageScale="1" pageWidth="1100" pageHeight="850" math="0" shadow="0">
      <root>
        <mxCell id="0" />
        <mxCell id="1" parent="0" />
        <mxCell id="Ovita0FS6FnRFT1Es1dQ-34" value="" style="rounded=1;whiteSpace=wrap;html=1;" parent="1" vertex="1">
          <mxGeometry x="130" y="10" width="680" height="760" as="geometry" />
        </mxCell>
        <mxCell id="Ovita0FS6FnRFT1Es1dQ-2" value="VET" style="shape=umlActor;verticalLabelPosition=bottom;verticalAlign=top;html=1;outlineConnect=0;" parent="1" vertex="1">
          <mxGeometry x="40" y="150" width="30" height="60" as="geometry" />
        </mxCell>
        <mxCell id="Ovita0FS6FnRFT1Es1dQ-3" value="Personal details" style="ellipse;whiteSpace=wrap;html=1;" parent="1" vertex="1">
          <mxGeometry x="450" y="90" width="100" height="50" as="geometry" />
        </mxCell>
        <mxCell id="Ovita0FS6FnRFT1Es1dQ-22" style="edgeStyle=orthogonalEdgeStyle;rounded=0;orthogonalLoop=1;jettySize=auto;html=1;entryX=0.5;entryY=0;entryDx=0;entryDy=0;" parent="1" source="Ovita0FS6FnRFT1Es1dQ-4" target="Ovita0FS6FnRFT1Es1dQ-6" edge="1">
          <mxGeometry relative="1" as="geometry" />
        </mxCell>
        <mxCell id="Ovita0FS6FnRFT1Es1dQ-4" value="Verification payment" style="ellipse;whiteSpace=wrap;html=1;" parent="1" vertex="1">
          <mxGeometry x="430" y="190" width="130" height="40" as="geometry" />
        </mxCell>
        <mxCell id="Ovita0FS6FnRFT1Es1dQ-26" style="edgeStyle=orthogonalEdgeStyle;rounded=0;orthogonalLoop=1;jettySize=auto;html=1;entryX=0.5;entryY=0;entryDx=0;entryDy=0;" parent="1" source="Ovita0FS6FnRFT1Es1dQ-6" target="Ovita0FS6FnRFT1Es1dQ-7" edge="1">
          <mxGeometry relative="1" as="geometry" />
        </mxCell>
        <mxCell id="Ovita0FS6FnRFT1Es1dQ-6" value="Confirmation Email" style="ellipse;whiteSpace=wrap;html=1;" parent="1" vertex="1">
          <mxGeometry x="422.5" y="340" width="145" height="40" as="geometry" />
        </mxCell>
        <mxCell id="Ovita0FS6FnRFT1Es1dQ-7" value="Web form" style="ellipse;whiteSpace=wrap;html=1;" parent="1" vertex="1">
          <mxGeometry x="390" y="440" width="212.5" height="50" as="geometry" />
        </mxCell>
        <mxCell id="Ovita0FS6FnRFT1Es1dQ-8" value="Amount correct" style="ellipse;whiteSpace=wrap;html=1;" parent="1" vertex="1">
          <mxGeometry x="700" y="470" width="100" height="55" as="geometry" />
        </mxCell>
        <mxCell id="Ovita0FS6FnRFT1Es1dQ-9" value="Payment provider" style="shape=umlActor;verticalLabelPosition=bottom;verticalAlign=top;html=1;outlineConnect=0;" parent="1" vertex="1">
          <mxGeometry x="900" y="140" width="30" height="60" as="geometry" />
        </mxCell>
        <mxCell id="Ovita0FS6FnRFT1Es1dQ-14" value="" style="endArrow=classic;html=1;" parent="1" edge="1">
          <mxGeometry width="50" height="50" relative="1" as="geometry">
            <mxPoint x="110" y="160" as="sourcePoint" />
            <mxPoint x="440" y="120" as="targetPoint" />
          </mxGeometry>
        </mxCell>
        <mxCell id="Ovita0FS6FnRFT1Es1dQ-19" value="" style="endArrow=classic;html=1;" parent="1" edge="1">
          <mxGeometry width="50" height="50" relative="1" as="geometry">
            <mxPoint x="580" y="120" as="sourcePoint" />
            <mxPoint x="860" y="160" as="targetPoint" />
          </mxGeometry>
        </mxCell>
        <mxCell id="Ovita0FS6FnRFT1Es1dQ-20" value="" style="endArrow=classic;html=1;" parent="1" edge="1">
          <mxGeometry width="50" height="50" relative="1" as="geometry">
            <mxPoint x="890" y="190" as="sourcePoint" />
            <mxPoint x="570" y="210" as="targetPoint" />
          </mxGeometry>
        </mxCell>
        <mxCell id="Ovita0FS6FnRFT1Es1dQ-21" value="" style="endArrow=classic;html=1;" parent="1" edge="1">
          <mxGeometry width="50" height="50" relative="1" as="geometry">
            <mxPoint x="440" y="210" as="sourcePoint" />
            <mxPoint x="130" y="180" as="targetPoint" />
          </mxGeometry>
        </mxCell>
        <mxCell id="Ovita0FS6FnRFT1Es1dQ-25" value="" style="endArrow=classic;html=1;exitX=0;exitY=0.5;exitDx=0;exitDy=0;" parent="1" source="Ovita0FS6FnRFT1Es1dQ-6" edge="1">
          <mxGeometry width="50" height="50" relative="1" as="geometry">
            <mxPoint x="422.5" y="310" as="sourcePoint" />
            <mxPoint x="113" y="230" as="targetPoint" />
          </mxGeometry>
        </mxCell>
        <mxCell id="Ovita0FS6FnRFT1Es1dQ-27" value="" style="endArrow=classic;html=1;" parent="1" edge="1">
          <mxGeometry width="50" height="50" relative="1" as="geometry">
            <mxPoint x="80" y="260" as="sourcePoint" />
            <mxPoint x="380" y="470" as="targetPoint" />
          </mxGeometry>
        </mxCell>
        <mxCell id="Ovita0FS6FnRFT1Es1dQ-28" value="unique ID diasplayed" style="ellipse;whiteSpace=wrap;html=1;" parent="1" vertex="1">
          <mxGeometry x="393.75" y="580" width="212.5" height="50" as="geometry" />
        </mxCell>
        <mxCell id="Ovita0FS6FnRFT1Es1dQ-29" value="" style="endArrow=classic;html=1;exitX=1;exitY=0.5;exitDx=0;exitDy=0;" parent="1" source="Ovita0FS6FnRFT1Es1dQ-7" edge="1">
          <mxGeometry width="50" height="50" relative="1" as="geometry">
            <mxPoint x="640" y="470" as="sourcePoint" />
            <mxPoint x="700" y="490" as="targetPoint" />
          </mxGeometry>
        </mxCell>
        <mxCell id="Ovita0FS6FnRFT1Es1dQ-31" value="" style="endArrow=classic;html=1;exitX=0;exitY=0.5;exitDx=0;exitDy=0;" parent="1" source="Ovita0FS6FnRFT1Es1dQ-28" edge="1">
          <mxGeometry width="50" height="50" relative="1" as="geometry">
            <mxPoint x="330" y="550" as="sourcePoint" />
            <mxPoint x="60" y="260" as="targetPoint" />
          </mxGeometry>
        </mxCell>
        <mxCell id="Ovita0FS6FnRFT1Es1dQ-32" value="" style="endArrow=classic;html=1;exitX=0;exitY=1;exitDx=0;exitDy=0;entryX=1;entryY=0.5;entryDx=0;entryDy=0;dashed=1;" parent="1" source="Ovita0FS6FnRFT1Es1dQ-8" target="Ovita0FS6FnRFT1Es1dQ-28" edge="1">
          <mxGeometry width="50" height="50" relative="1" as="geometry">
            <mxPoint x="660" y="580" as="sourcePoint" />
            <mxPoint x="757.5" y="605" as="targetPoint" />
          </mxGeometry>
        </mxCell>
        <mxCell id="Ovita0FS6FnRFT1Es1dQ-35" value="System Boundary" style="text;html=1;align=center;verticalAlign=middle;resizable=0;points=[];autosize=1;" parent="1" vertex="1">
          <mxGeometry x="765" y="610" width="110" height="20" as="geometry" />
        </mxCell>
      </root>
    </mxGraphModel>
  </diagram>
  <diagram id="mToYTeW1h8c8ZWWp6YT2" name="Page-2">
    <mxGraphModel dx="1422" dy="713" grid="1" gridSize="10" guides="1" tooltips="1" connect="1" arrows="1" fold="1" page="1" pageScale="1" pageWidth="1100" pageHeight="850" math="0" shadow="0">
      <root>
        <mxCell id="AZFqOjDwM5xjvzSkvFtZ-0" />
        <mxCell id="AZFqOjDwM5xjvzSkvFtZ-1" parent="AZFqOjDwM5xjvzSkvFtZ-0" />
        <mxCell id="AZFqOjDwM5xjvzSkvFtZ-61" value="" style="rounded=0;whiteSpace=wrap;html=1;" parent="AZFqOjDwM5xjvzSkvFtZ-1" vertex="1">
          <mxGeometry x="220" y="30" width="720" height="820" as="geometry" />
        </mxCell>
        <mxCell id="AZFqOjDwM5xjvzSkvFtZ-2" value="Vet" style="shape=umlActor;verticalLabelPosition=bottom;verticalAlign=top;html=1;outlineConnect=0;" parent="AZFqOjDwM5xjvzSkvFtZ-1" vertex="1">
          <mxGeometry x="160" y="110" width="30" height="60" as="geometry" />
        </mxCell>
        <mxCell id="AZFqOjDwM5xjvzSkvFtZ-3" value="Herd owner" style="shape=umlActor;verticalLabelPosition=bottom;verticalAlign=top;html=1;outlineConnect=0;" parent="AZFqOjDwM5xjvzSkvFtZ-1" vertex="1">
          <mxGeometry x="1010" y="270" width="30" height="60" as="geometry" />
        </mxCell>
        <mxCell id="AZFqOjDwM5xjvzSkvFtZ-21" style="edgeStyle=orthogonalEdgeStyle;shape=flexArrow;rounded=0;orthogonalLoop=1;jettySize=auto;html=1;entryX=0.5;entryY=0;entryDx=0;entryDy=0;" parent="AZFqOjDwM5xjvzSkvFtZ-1" source="AZFqOjDwM5xjvzSkvFtZ-4" target="AZFqOjDwM5xjvzSkvFtZ-19" edge="1">
          <mxGeometry relative="1" as="geometry" />
        </mxCell>
        <mxCell id="AZFqOjDwM5xjvzSkvFtZ-58" style="edgeStyle=orthogonalEdgeStyle;shape=flexArrow;rounded=0;orthogonalLoop=1;jettySize=auto;html=1;entryX=0;entryY=0.5;entryDx=0;entryDy=0;" parent="AZFqOjDwM5xjvzSkvFtZ-1" source="AZFqOjDwM5xjvzSkvFtZ-4" target="AZFqOjDwM5xjvzSkvFtZ-57" edge="1">
          <mxGeometry relative="1" as="geometry" />
        </mxCell>
        <mxCell id="AZFqOjDwM5xjvzSkvFtZ-4" value="Farm Profile&amp;nbsp;" style="ellipse;whiteSpace=wrap;html=1;" parent="AZFqOjDwM5xjvzSkvFtZ-1" vertex="1">
          <mxGeometry x="490" y="110" width="170" height="50" as="geometry" />
        </mxCell>
        <mxCell id="AZFqOjDwM5xjvzSkvFtZ-15" value="" style="endArrow=classic;html=1;" parent="AZFqOjDwM5xjvzSkvFtZ-1" edge="1">
          <mxGeometry width="50" height="50" relative="1" as="geometry">
            <mxPoint x="230" y="145" as="sourcePoint" />
            <mxPoint x="480" y="140" as="targetPoint" />
            <Array as="points">
              <mxPoint x="360" y="145" />
            </Array>
          </mxGeometry>
        </mxCell>
        <mxCell id="AZFqOjDwM5xjvzSkvFtZ-16" value="Creates" style="edgeLabel;html=1;align=center;verticalAlign=middle;resizable=0;points=[];" parent="AZFqOjDwM5xjvzSkvFtZ-15" vertex="1" connectable="0">
          <mxGeometry x="-0.6641" y="3" relative="1" as="geometry">
            <mxPoint as="offset" />
          </mxGeometry>
        </mxCell>
        <mxCell id="AZFqOjDwM5xjvzSkvFtZ-17" value="" style="endArrow=classic;html=1;" parent="AZFqOjDwM5xjvzSkvFtZ-1" edge="1">
          <mxGeometry width="50" height="50" relative="1" as="geometry">
            <mxPoint x="680" y="150" as="sourcePoint" />
            <mxPoint x="980" y="290" as="targetPoint" />
            <Array as="points" />
          </mxGeometry>
        </mxCell>
        <mxCell id="AZFqOjDwM5xjvzSkvFtZ-18" value="Farm ID" style="edgeLabel;html=1;align=center;verticalAlign=middle;resizable=0;points=[];" parent="AZFqOjDwM5xjvzSkvFtZ-17" vertex="1" connectable="0">
          <mxGeometry x="-0.2146" y="4" relative="1" as="geometry">
            <mxPoint as="offset" />
          </mxGeometry>
        </mxCell>
        <mxCell id="AZFqOjDwM5xjvzSkvFtZ-19" value="Vaccination status" style="ellipse;whiteSpace=wrap;html=1;" parent="AZFqOjDwM5xjvzSkvFtZ-1" vertex="1">
          <mxGeometry x="490" y="220" width="170" height="50" as="geometry" />
        </mxCell>
        <mxCell id="AZFqOjDwM5xjvzSkvFtZ-20" value="" style="endArrow=classic;html=1;" parent="AZFqOjDwM5xjvzSkvFtZ-1" edge="1">
          <mxGeometry width="50" height="50" relative="1" as="geometry">
            <mxPoint x="200" y="170" as="sourcePoint" />
            <mxPoint x="480" y="230" as="targetPoint" />
          </mxGeometry>
        </mxCell>
        <mxCell id="AZFqOjDwM5xjvzSkvFtZ-26" value="Enters" style="edgeLabel;html=1;align=center;verticalAlign=middle;resizable=0;points=[];" parent="AZFqOjDwM5xjvzSkvFtZ-20" vertex="1" connectable="0">
          <mxGeometry x="-0.2439" y="1" relative="1" as="geometry">
            <mxPoint as="offset" />
          </mxGeometry>
        </mxCell>
        <mxCell id="AZFqOjDwM5xjvzSkvFtZ-23" value="" style="endArrow=classic;html=1;entryX=0.976;entryY=0.64;entryDx=0;entryDy=0;entryPerimeter=0;" parent="AZFqOjDwM5xjvzSkvFtZ-1" target="AZFqOjDwM5xjvzSkvFtZ-19" edge="1">
          <mxGeometry width="50" height="50" relative="1" as="geometry">
            <mxPoint x="990" y="310" as="sourcePoint" />
            <mxPoint x="700" y="330" as="targetPoint" />
          </mxGeometry>
        </mxCell>
        <mxCell id="AZFqOjDwM5xjvzSkvFtZ-27" value="Test Result" style="edgeLabel;html=1;align=center;verticalAlign=middle;resizable=0;points=[];" parent="AZFqOjDwM5xjvzSkvFtZ-23" vertex="1" connectable="0">
          <mxGeometry x="-0.0727" y="-2" relative="1" as="geometry">
            <mxPoint as="offset" />
          </mxGeometry>
        </mxCell>
        <mxCell id="AZFqOjDwM5xjvzSkvFtZ-28" value="" style="endArrow=classic;html=1;" parent="AZFqOjDwM5xjvzSkvFtZ-1" edge="1">
          <mxGeometry width="50" height="50" relative="1" as="geometry">
            <mxPoint x="220" y="200" as="sourcePoint" />
            <mxPoint x="490" y="330" as="targetPoint" />
          </mxGeometry>
        </mxCell>
        <mxCell id="AZFqOjDwM5xjvzSkvFtZ-29" value="Enters" style="edgeLabel;html=1;align=center;verticalAlign=middle;resizable=0;points=[];" parent="AZFqOjDwM5xjvzSkvFtZ-28" vertex="1" connectable="0">
          <mxGeometry x="-0.2439" y="1" relative="1" as="geometry">
            <mxPoint as="offset" />
          </mxGeometry>
        </mxCell>
        <mxCell id="AZFqOjDwM5xjvzSkvFtZ-31" style="edgeStyle=orthogonalEdgeStyle;shape=flexArrow;rounded=0;orthogonalLoop=1;jettySize=auto;html=1;" parent="AZFqOjDwM5xjvzSkvFtZ-1" source="AZFqOjDwM5xjvzSkvFtZ-30" edge="1">
          <mxGeometry relative="1" as="geometry">
            <mxPoint x="575" y="450" as="targetPoint" />
          </mxGeometry>
        </mxCell>
        <mxCell id="AZFqOjDwM5xjvzSkvFtZ-33" value="If Entered" style="edgeLabel;html=1;align=center;verticalAlign=middle;resizable=0;points=[];" parent="AZFqOjDwM5xjvzSkvFtZ-31" vertex="1" connectable="0">
          <mxGeometry x="-0.3" y="3" relative="1" as="geometry">
            <mxPoint as="offset" />
          </mxGeometry>
        </mxCell>
        <mxCell id="AZFqOjDwM5xjvzSkvFtZ-30" value="Test Data" style="ellipse;whiteSpace=wrap;html=1;" parent="AZFqOjDwM5xjvzSkvFtZ-1" vertex="1">
          <mxGeometry x="490" y="300" width="170" height="50" as="geometry" />
        </mxCell>
        <mxCell id="AZFqOjDwM5xjvzSkvFtZ-39" value="" style="edgeStyle=orthogonalEdgeStyle;shape=flexArrow;rounded=0;orthogonalLoop=1;jettySize=auto;html=1;width=4;endSize=9.33;" parent="AZFqOjDwM5xjvzSkvFtZ-1" source="AZFqOjDwM5xjvzSkvFtZ-32" target="AZFqOjDwM5xjvzSkvFtZ-36" edge="1">
          <mxGeometry relative="1" as="geometry" />
        </mxCell>
        <mxCell id="AZFqOjDwM5xjvzSkvFtZ-32" value="Order form&amp;nbsp;" style="ellipse;whiteSpace=wrap;html=1;" parent="AZFqOjDwM5xjvzSkvFtZ-1" vertex="1">
          <mxGeometry x="490" y="450" width="170" height="50" as="geometry" />
        </mxCell>
        <mxCell id="AZFqOjDwM5xjvzSkvFtZ-34" value="" style="endArrow=classic;html=1;" parent="AZFqOjDwM5xjvzSkvFtZ-1" edge="1">
          <mxGeometry width="50" height="50" relative="1" as="geometry">
            <mxPoint x="190" y="230" as="sourcePoint" />
            <mxPoint x="480" y="440" as="targetPoint" />
          </mxGeometry>
        </mxCell>
        <mxCell id="AZFqOjDwM5xjvzSkvFtZ-35" value="Enters" style="edgeLabel;html=1;align=center;verticalAlign=middle;resizable=0;points=[];" parent="AZFqOjDwM5xjvzSkvFtZ-34" vertex="1" connectable="0">
          <mxGeometry x="-0.2439" y="1" relative="1" as="geometry">
            <mxPoint as="offset" />
          </mxGeometry>
        </mxCell>
        <mxCell id="AZFqOjDwM5xjvzSkvFtZ-40" style="edgeStyle=orthogonalEdgeStyle;shape=flexArrow;rounded=0;orthogonalLoop=1;jettySize=auto;html=1;exitX=0;exitY=0.5;exitDx=0;exitDy=0;entryX=1;entryY=0.5;entryDx=0;entryDy=0;" parent="AZFqOjDwM5xjvzSkvFtZ-1" source="AZFqOjDwM5xjvzSkvFtZ-36" target="AZFqOjDwM5xjvzSkvFtZ-37" edge="1">
          <mxGeometry relative="1" as="geometry" />
        </mxCell>
        <mxCell id="AZFqOjDwM5xjvzSkvFtZ-36" value="place order" style="ellipse;whiteSpace=wrap;html=1;" parent="AZFqOjDwM5xjvzSkvFtZ-1" vertex="1">
          <mxGeometry x="490" y="540" width="170" height="50" as="geometry" />
        </mxCell>
        <mxCell id="AZFqOjDwM5xjvzSkvFtZ-37" value="Two Step authentication" style="ellipse;whiteSpace=wrap;html=1;" parent="AZFqOjDwM5xjvzSkvFtZ-1" vertex="1">
          <mxGeometry x="260" y="540" width="170" height="50" as="geometry" />
        </mxCell>
        <mxCell id="AZFqOjDwM5xjvzSkvFtZ-43" value="" style="endArrow=classic;startArrow=classic;html=1;" parent="AZFqOjDwM5xjvzSkvFtZ-1" edge="1">
          <mxGeometry width="50" height="50" relative="1" as="geometry">
            <mxPoint x="160" y="210" as="sourcePoint" />
            <mxPoint x="310" y="530" as="targetPoint" />
          </mxGeometry>
        </mxCell>
        <mxCell id="AZFqOjDwM5xjvzSkvFtZ-45" value="Warehouse" style="shape=umlActor;verticalLabelPosition=bottom;verticalAlign=top;html=1;outlineConnect=0;" parent="AZFqOjDwM5xjvzSkvFtZ-1" vertex="1">
          <mxGeometry x="90" y="640" width="30" height="60" as="geometry" />
        </mxCell>
        <mxCell id="AZFqOjDwM5xjvzSkvFtZ-46" value="" style="endArrow=classic;startArrow=classic;html=1;" parent="AZFqOjDwM5xjvzSkvFtZ-1" edge="1">
          <mxGeometry width="50" height="50" relative="1" as="geometry">
            <mxPoint x="160" y="710" as="sourcePoint" />
            <mxPoint x="420" y="760" as="targetPoint" />
          </mxGeometry>
        </mxCell>
        <mxCell id="AZFqOjDwM5xjvzSkvFtZ-47" value="" style="endArrow=classic;html=1;exitX=0.706;exitY=1;exitDx=0;exitDy=0;exitPerimeter=0;" parent="AZFqOjDwM5xjvzSkvFtZ-1" source="AZFqOjDwM5xjvzSkvFtZ-37" edge="1">
          <mxGeometry width="50" height="50" relative="1" as="geometry">
            <mxPoint x="450" y="740" as="sourcePoint" />
            <mxPoint x="440" y="640" as="targetPoint" />
          </mxGeometry>
        </mxCell>
        <mxCell id="AZFqOjDwM5xjvzSkvFtZ-50" style="edgeStyle=orthogonalEdgeStyle;shape=flexArrow;rounded=0;orthogonalLoop=1;jettySize=auto;html=1;exitX=0.5;exitY=1;exitDx=0;exitDy=0;entryX=0.541;entryY=-0.02;entryDx=0;entryDy=0;entryPerimeter=0;" parent="AZFqOjDwM5xjvzSkvFtZ-1" source="AZFqOjDwM5xjvzSkvFtZ-48" target="AZFqOjDwM5xjvzSkvFtZ-49" edge="1">
          <mxGeometry relative="1" as="geometry" />
        </mxCell>
        <mxCell id="AZFqOjDwM5xjvzSkvFtZ-48" value="Correct" style="ellipse;whiteSpace=wrap;html=1;" parent="AZFqOjDwM5xjvzSkvFtZ-1" vertex="1">
          <mxGeometry x="440" y="620" width="170" height="50" as="geometry" />
        </mxCell>
        <mxCell id="AZFqOjDwM5xjvzSkvFtZ-53" style="edgeStyle=orthogonalEdgeStyle;shape=flexArrow;rounded=0;orthogonalLoop=1;jettySize=auto;html=1;exitX=1;exitY=0.5;exitDx=0;exitDy=0;" parent="AZFqOjDwM5xjvzSkvFtZ-1" source="AZFqOjDwM5xjvzSkvFtZ-49" target="AZFqOjDwM5xjvzSkvFtZ-52" edge="1">
          <mxGeometry relative="1" as="geometry" />
        </mxCell>
        <mxCell id="AZFqOjDwM5xjvzSkvFtZ-49" value="Order Record" style="ellipse;whiteSpace=wrap;html=1;" parent="AZFqOjDwM5xjvzSkvFtZ-1" vertex="1">
          <mxGeometry x="430" y="730" width="170" height="50" as="geometry" />
        </mxCell>
        <mxCell id="AZFqOjDwM5xjvzSkvFtZ-51" value="Admin/Super user" style="shape=umlActor;verticalLabelPosition=bottom;verticalAlign=top;html=1;outlineConnect=0;" parent="AZFqOjDwM5xjvzSkvFtZ-1" vertex="1">
          <mxGeometry x="980" y="670" width="30" height="60" as="geometry" />
        </mxCell>
        <mxCell id="AZFqOjDwM5xjvzSkvFtZ-52" value="Report" style="ellipse;whiteSpace=wrap;html=1;" parent="AZFqOjDwM5xjvzSkvFtZ-1" vertex="1">
          <mxGeometry x="650" y="680" width="170" height="50" as="geometry" />
        </mxCell>
        <mxCell id="AZFqOjDwM5xjvzSkvFtZ-54" value="" style="endArrow=classic;startArrow=classic;html=1;" parent="AZFqOjDwM5xjvzSkvFtZ-1" edge="1">
          <mxGeometry width="50" height="50" relative="1" as="geometry">
            <mxPoint x="830" y="710" as="sourcePoint" />
            <mxPoint x="960" y="710" as="targetPoint" />
          </mxGeometry>
        </mxCell>
        <mxCell id="AZFqOjDwM5xjvzSkvFtZ-56" value="Auditor" style="shape=umlActor;verticalLabelPosition=bottom;verticalAlign=top;html=1;outlineConnect=0;" parent="AZFqOjDwM5xjvzSkvFtZ-1" vertex="1">
          <mxGeometry x="1010" y="80" width="30" height="60" as="geometry" />
        </mxCell>
        <mxCell id="AZFqOjDwM5xjvzSkvFtZ-57" value="Farm Profile Report" style="ellipse;whiteSpace=wrap;html=1;" parent="AZFqOjDwM5xjvzSkvFtZ-1" vertex="1">
          <mxGeometry x="720" y="90" width="170" height="50" as="geometry" />
        </mxCell>
        <mxCell id="AZFqOjDwM5xjvzSkvFtZ-59" value="" style="endArrow=classic;html=1;" parent="AZFqOjDwM5xjvzSkvFtZ-1" edge="1">
          <mxGeometry width="50" height="50" relative="1" as="geometry">
            <mxPoint x="920" y="115" as="sourcePoint" />
            <mxPoint x="1020" y="110" as="targetPoint" />
            <Array as="points">
              <mxPoint x="900" y="115" />
            </Array>
          </mxGeometry>
        </mxCell>
        <mxCell id="AZFqOjDwM5xjvzSkvFtZ-60" value="Creates" style="edgeLabel;html=1;align=center;verticalAlign=middle;resizable=0;points=[];" parent="AZFqOjDwM5xjvzSkvFtZ-59" vertex="1" connectable="0">
          <mxGeometry x="-0.6641" y="3" relative="1" as="geometry">
            <mxPoint as="offset" />
          </mxGeometry>
        </mxCell>
        <mxCell id="AZFqOjDwM5xjvzSkvFtZ-62" value="System Boundary" style="text;html=1;align=center;verticalAlign=middle;resizable=0;points=[];autosize=1;" parent="AZFqOjDwM5xjvzSkvFtZ-1" vertex="1">
          <mxGeometry x="895" y="490" width="110" height="20" as="geometry" />
        </mxCell>
        <mxCell id="AZFqOjDwM5xjvzSkvFtZ-64" value="Dispatch order" style="ellipse;whiteSpace=wrap;html=1;" parent="AZFqOjDwM5xjvzSkvFtZ-1" vertex="1">
          <mxGeometry x="240" y="630" width="170" height="50" as="geometry" />
        </mxCell>
        <mxCell id="AZFqOjDwM5xjvzSkvFtZ-67" value="" style="endArrow=classic;html=1;entryX=0.028;entryY=0.78;entryDx=0;entryDy=0;entryPerimeter=0;" parent="AZFqOjDwM5xjvzSkvFtZ-1" target="AZFqOjDwM5xjvzSkvFtZ-61" edge="1">
          <mxGeometry width="50" height="50" relative="1" as="geometry">
            <mxPoint x="130" y="680" as="sourcePoint" />
            <mxPoint x="180" y="630" as="targetPoint" />
          </mxGeometry>
        </mxCell>
        <mxCell id="AZFqOjDwM5xjvzSkvFtZ-68" value="" style="endArrow=classic;html=1;" parent="AZFqOjDwM5xjvzSkvFtZ-1" edge="1">
          <mxGeometry width="50" height="50" relative="1" as="geometry">
            <mxPoint x="259.99999999999983" y="639.8000000000002" as="sourcePoint" />
            <mxPoint x="140" y="230" as="targetPoint" />
          </mxGeometry>
        </mxCell>
      </root>
    </mxGraphModel>
  </diagram>
  <diagram id="3VAf5PvuGsMlbfdgEM88" name="Page-3">
    <mxGraphModel dx="1422" dy="713" grid="1" gridSize="10" guides="1" tooltips="1" connect="1" arrows="1" fold="1" page="1" pageScale="1" pageWidth="1100" pageHeight="850" math="0" shadow="0">
      <root>
        <mxCell id="vwUp3O-noXTL40xXdenU-0" />
        <mxCell id="vwUp3O-noXTL40xXdenU-1" parent="vwUp3O-noXTL40xXdenU-0" />
        <mxCell id="ZxmpGJkSPmD5NCQj7Ix8-0" value="&lt;font style=&quot;font-size: 20px&quot;&gt;Agent&lt;/font&gt;" style="rounded=1;whiteSpace=wrap;html=1;fillColor=#dae8fc;strokeColor=#6c8ebf;" vertex="1" parent="vwUp3O-noXTL40xXdenU-1">
          <mxGeometry x="480" y="100" width="120" height="60" as="geometry" />
        </mxCell>
        <mxCell id="ZxmpGJkSPmD5NCQj7Ix8-4" style="edgeStyle=orthogonalEdgeStyle;rounded=0;orthogonalLoop=1;jettySize=auto;html=1;exitX=0;exitY=0.75;exitDx=0;exitDy=0;entryX=0;entryY=0.25;entryDx=0;entryDy=0;" edge="1" parent="vwUp3O-noXTL40xXdenU-1" source="ZxmpGJkSPmD5NCQj7Ix8-1" target="ZxmpGJkSPmD5NCQj7Ix8-0">
          <mxGeometry relative="1" as="geometry">
            <mxPoint x="290" y="6" as="targetPoint" />
            <mxPoint x="470" y="380" as="sourcePoint" />
            <Array as="points">
              <mxPoint x="210" y="375" />
              <mxPoint x="210" y="115" />
            </Array>
          </mxGeometry>
        </mxCell>
        <mxCell id="ZxmpGJkSPmD5NCQj7Ix8-6" style="edgeStyle=orthogonalEdgeStyle;rounded=0;orthogonalLoop=1;jettySize=auto;html=1;exitX=0;exitY=0.25;exitDx=0;exitDy=0;entryX=0;entryY=0.75;entryDx=0;entryDy=0;startArrow=none;" edge="1" parent="vwUp3O-noXTL40xXdenU-1" source="ZxmpGJkSPmD5NCQj7Ix8-8" target="ZxmpGJkSPmD5NCQj7Ix8-0">
          <mxGeometry relative="1" as="geometry">
            <mxPoint x="260" y="190" as="targetPoint" />
            <Array as="points">
              <mxPoint x="250" y="150" />
              <mxPoint x="260" y="150" />
              <mxPoint x="260" y="145" />
            </Array>
          </mxGeometry>
        </mxCell>
        <mxCell id="ZxmpGJkSPmD5NCQj7Ix8-1" value="Environment&amp;nbsp;" style="rounded=1;whiteSpace=wrap;html=1;fillColor=#d5e8d4;strokeColor=#82b366;" vertex="1" parent="vwUp3O-noXTL40xXdenU-1">
          <mxGeometry x="480" y="330" width="120" height="60" as="geometry" />
        </mxCell>
        <mxCell id="ZxmpGJkSPmD5NCQj7Ix8-3" value="" style="endArrow=classic;html=1;" edge="1" parent="vwUp3O-noXTL40xXdenU-1">
          <mxGeometry width="50" height="50" relative="1" as="geometry">
            <mxPoint x="600" y="120" as="sourcePoint" />
            <mxPoint x="610" y="360" as="targetPoint" />
            <Array as="points">
              <mxPoint x="720" y="120" />
              <mxPoint x="720" y="360" />
            </Array>
          </mxGeometry>
        </mxCell>
        <mxCell id="ZxmpGJkSPmD5NCQj7Ix8-7" value="&lt;font style=&quot;font-size: 20px&quot;&gt;Action&amp;nbsp;&lt;br&gt;A&lt;sub&gt;t&lt;/sub&gt;&lt;br&gt;&lt;/font&gt;" style="text;html=1;align=center;verticalAlign=middle;resizable=0;points=[];autosize=1;strokeColor=none;" vertex="1" parent="vwUp3O-noXTL40xXdenU-1">
          <mxGeometry x="760" y="250" width="80" height="40" as="geometry" />
        </mxCell>
        <mxCell id="ZxmpGJkSPmD5NCQj7Ix8-8" value="Reward" style="ellipse;whiteSpace=wrap;html=1;aspect=fixed;fillColor=#f8cecc;strokeColor=#b85450;" vertex="1" parent="vwUp3O-noXTL40xXdenU-1">
          <mxGeometry x="230" y="220" width="50" height="50" as="geometry" />
        </mxCell>
        <mxCell id="ZxmpGJkSPmD5NCQj7Ix8-10" value="" style="edgeStyle=orthogonalEdgeStyle;rounded=0;orthogonalLoop=1;jettySize=auto;html=1;exitX=0;exitY=0.25;exitDx=0;exitDy=0;entryX=0.5;entryY=1;entryDx=0;entryDy=0;endArrow=none;" edge="1" parent="vwUp3O-noXTL40xXdenU-1" source="ZxmpGJkSPmD5NCQj7Ix8-1" target="ZxmpGJkSPmD5NCQj7Ix8-8">
          <mxGeometry relative="1" as="geometry">
            <mxPoint x="480" y="145" as="targetPoint" />
            <mxPoint x="480" y="345" as="sourcePoint" />
            <Array as="points">
              <mxPoint x="250" y="345" />
              <mxPoint x="250" y="270" />
            </Array>
          </mxGeometry>
        </mxCell>
        <mxCell id="ZxmpGJkSPmD5NCQj7Ix8-11" value="&lt;font style=&quot;font-size: 20px&quot;&gt;R&lt;sub&gt;t&lt;/sub&gt;&lt;/font&gt;" style="text;html=1;align=center;verticalAlign=middle;resizable=0;points=[];autosize=1;strokeColor=none;" vertex="1" parent="vwUp3O-noXTL40xXdenU-1">
          <mxGeometry x="295" y="235" width="30" height="30" as="geometry" />
        </mxCell>
        <mxCell id="ZxmpGJkSPmD5NCQj7Ix8-13" value="State" style="ellipse;whiteSpace=wrap;html=1;aspect=fixed;fillColor=#e1d5e7;strokeColor=#9673a6;" vertex="1" parent="vwUp3O-noXTL40xXdenU-1">
          <mxGeometry x="180" y="220" width="50" height="50" as="geometry" />
        </mxCell>
        <mxCell id="ZxmpGJkSPmD5NCQj7Ix8-14" value="&lt;font style=&quot;font-size: 20px&quot;&gt;S&lt;sub&gt;t&lt;/sub&gt;&lt;/font&gt;" style="text;html=1;align=center;verticalAlign=middle;resizable=0;points=[];autosize=1;strokeColor=none;" vertex="1" parent="vwUp3O-noXTL40xXdenU-1">
          <mxGeometry x="140" y="230" width="30" height="30" as="geometry" />
        </mxCell>
        <mxCell id="ZxmpGJkSPmD5NCQj7Ix8-15" value="&lt;font style=&quot;font-size: 20px&quot;&gt;R&lt;sub&gt;t+1&lt;/sub&gt;&lt;/font&gt;" style="text;html=1;align=center;verticalAlign=middle;resizable=0;points=[];autosize=1;strokeColor=none;" vertex="1" parent="vwUp3O-noXTL40xXdenU-1">
          <mxGeometry x="405" y="305" width="50" height="30" as="geometry" />
        </mxCell>
        <mxCell id="ZxmpGJkSPmD5NCQj7Ix8-16" value="&lt;span style=&quot;font-size: 16.6667px&quot;&gt;S&lt;sub&gt;t+1&lt;/sub&gt;&lt;/span&gt;" style="text;html=1;align=center;verticalAlign=middle;resizable=0;points=[];autosize=1;strokeColor=none;" vertex="1" parent="vwUp3O-noXTL40xXdenU-1">
          <mxGeometry x="405" y="405" width="50" height="20" as="geometry" />
        </mxCell>
        <mxCell id="ZxmpGJkSPmD5NCQj7Ix8-17" value="" style="shape=flexArrow;endArrow=classic;html=1;fillColor=#f8cecc;strokeColor=#b85450;" edge="1" parent="vwUp3O-noXTL40xXdenU-1">
          <mxGeometry width="50" height="50" relative="1" as="geometry">
            <mxPoint x="480" y="350" as="sourcePoint" />
            <mxPoint x="420" y="350" as="targetPoint" />
          </mxGeometry>
        </mxCell>
        <mxCell id="ZxmpGJkSPmD5NCQj7Ix8-18" value="" style="ellipse;whiteSpace=wrap;html=1;aspect=fixed;fillColor=#ffe6cc;strokeColor=#d79b00;" vertex="1" parent="vwUp3O-noXTL40xXdenU-1">
          <mxGeometry x="690" y="230" width="60" height="60" as="geometry" />
        </mxCell>
        <mxCell id="ZxmpGJkSPmD5NCQj7Ix8-20" value="" style="shape=flexArrow;endArrow=classic;html=1;fillColor=#e1d5e7;strokeColor=#9673a6;" edge="1" parent="vwUp3O-noXTL40xXdenU-1">
          <mxGeometry width="50" height="50" relative="1" as="geometry">
            <mxPoint x="480" y="380" as="sourcePoint" />
            <mxPoint x="420" y="380" as="targetPoint" />
          </mxGeometry>
        </mxCell>
        <mxCell id="ZxmpGJkSPmD5NCQj7Ix8-21" value="1" style="text;html=1;align=center;verticalAlign=middle;resizable=0;points=[];autosize=1;strokeColor=none;" vertex="1" parent="vwUp3O-noXTL40xXdenU-1">
          <mxGeometry x="190" y="140" width="20" height="20" as="geometry" />
        </mxCell>
        <mxCell id="ZxmpGJkSPmD5NCQj7Ix8-23" value="2" style="text;html=1;align=center;verticalAlign=middle;resizable=0;points=[];autosize=1;strokeColor=none;" vertex="1" parent="vwUp3O-noXTL40xXdenU-1">
          <mxGeometry x="720" y="170" width="20" height="20" as="geometry" />
        </mxCell>
        <mxCell id="ZxmpGJkSPmD5NCQj7Ix8-24" value="3" style="text;html=1;align=center;verticalAlign=middle;resizable=0;points=[];autosize=1;strokeColor=none;" vertex="1" parent="vwUp3O-noXTL40xXdenU-1">
          <mxGeometry x="550" y="400" width="20" height="20" as="geometry" />
        </mxCell>
        <mxCell id="ZxmpGJkSPmD5NCQj7Ix8-25" value="4" style="text;html=1;align=center;verticalAlign=middle;resizable=0;points=[];autosize=1;strokeColor=none;" vertex="1" parent="vwUp3O-noXTL40xXdenU-1">
          <mxGeometry x="310" y="380" width="20" height="20" as="geometry" />
        </mxCell>
        <mxCell id="ZxmpGJkSPmD5NCQj7Ix8-26" value="4.1" style="text;html=1;align=center;verticalAlign=middle;resizable=0;points=[];autosize=1;strokeColor=none;" vertex="1" parent="vwUp3O-noXTL40xXdenU-1">
          <mxGeometry x="315" y="310" width="30" height="20" as="geometry" />
        </mxCell>
      </root>
    </mxGraphModel>
  </diagram>
</mxfile>
